# AST/ASF file generated using VICON BodyLanguage
# -----------------------------------------------
:version 1.10
:name VICON
:units
  mass 1.0
  length 0.45
  angle deg
:documentation
   .ast/.asf automatically generated from VICON data using
   VICON BodyBuilder and BodyLanguage model FoxedUp or BRILLIANT.MOD
:root
   order TX TY TZ RX RY RZ
   axis XYZ
   position 0 0 0  
   orientation 0 0 0 
:bonedata
  begin
     id 1 
     name lhipjoint
     direction 0.570549 -0.739093 0.358072 
     length 2.41801 
     axis 0 0 0  XYZ
  end
  begin
     id 2 
     name lfemur
     direction 0.34202 -0.939693 0  
     length 7.44434  
     axis 0 0 20  XYZ
    dof rx ry rz
    limits (-160.0 20.0)
           (-70.0 70.0)
           (-60.0 70.0)
  end
  begin
     id 3 
     name ltibia
     direction 0.34202 -0.939693 0   
     length 7.60047   
     axis 0 0 20   XYZ
    dof rx
    limits (-10.0 170.0)
  end
  begin
     id 4 
     name lfoot
     direction 0.0909041 -0.249757 0.964032   
     length 2.03437   
     axis -90 7.62852e-016 20   XYZ
    dof rx rz
    limits (-45.0 90.0)
           (-70.0 20.0)
  end
  begin
     id 5 
     name ltoes
     direction 1.53547e-011 -4.2174e-011 1   
     length 1.02054   
     axis -90 7.62852e-016 20   XYZ
    dof rx
    limits (-90.0 20.0)
  end
  begin
     id 6 
     name rhipjoint
     direction -0.558096 -0.746754 0.361784   
     length 2.3932  
     axis 0 0 0  XYZ 
  end
  begin
     id 7 
     name rfemur
     direction -0.34202 -0.939693 0   
     length 7.3886   
     axis 0 0 -20   XYZ
    dof rx ry rz
    limits (-160.0 20.0)
           (-70.0 70.0)
           (-70.0 60.0)
  end
  begin
     id 8 
     name rtibia
     direction -0.34202 -0.939693 0   
     length 7.4839   
     axis 0 0 -20   XYZ
    dof rx
    limits (-10.0 170.0)
 end
 begin
     id 9 
     name rfoot
     direction -0.114619 -0.314914 0.942174   
     length 2.25127  
     axis -90 -7.62852e-016 -20   XYZ
    dof rx rz
    limits (-45.0 90.0)
           (-20.0 70.0)
  end
  begin
     id 10 
     name rtoes
     direction -1.53518e-011 -4.21881e-011 1   
     length 1.11821   
     axis -90 -7.62852e-016 -20   XYZ
    dof rx
    limits (-90.0 20.0)
  end
  begin
     id 11 
     name lowerback
     direction -0.00902269 0.996426 -0.0839821   
     length 2.25052   
     axis 0 0 0   XYZ
    dof rx ry rz
    limits (-20.0 45.0)
           (-30.0 30.0)
           (-30.0 30.0)
  end
  begin
     id 12 
     name upperback
     direction 0.0370973 0.999169 -0.0168941   
     length 2.24876   
     axis 0 0 0   XYZ
    dof rx ry rz
    limits (-20.0 45.0)
           (-30.0 30.0)
           (-30.0 30.0)
  end
  begin
     id 13 
     name thorax
     direction 0.0402726 0.998931 0.0227027   
     length 2.26408   
     axis 0 0 0   XYZ
    dof rx ry rz
    limits (-20.0 45.0)
           (-30.0 30.0)
           (-30.0 30.0)
  end
  begin
     id 14 
     name lowerneck
     direction -0.0733697 0.98508 0.155675   
     length 1.58204   
     axis 0 0 0   XYZ
    dof rx ry rz
    limits (-20.0 45.0)
           (-30.0 30.0)
           (-30.0 30.0)
  end
  begin
     id 15 
     name upperneck
     direction 0.0426554 0.993501 -0.105526   
     length 1.61222   
     axis 0 0 0   XYZ
    dof rx ry rz
    limits (-20.0 45.0)
           (-30.0 30.0)
           (-30.0 30.0)
  end
  begin
     id 16
     name head
     direction 0.020792 0.998384 -0.0528868  
     length 1.61527  
     axis 0 0 0   XYZ
    dof rx ry rz
    limits (-20.0 45.0)
           (-30.0 30.0)
           (-30.0 30.0)
  end
  begin
     id 17 
     name lclavicle
     direction 0.967109 0.155462 -0.201325  
     length 3.59357  
     axis 0 0 0   XYZ
    dof ry rz
    limits (-20.0 10.0)
           (0.0 20.0)
  end
  begin
     id 18 
     name lhumerus
     direction 1 -4.48968e-011 2.38195e-027   
     length 5.38154   
     axis 180 -30 -90   XYZ
    dof rx ry rz
    limits (-60.0 90.0)
           (-90.0 90.0)
           (-90.0 90.0)
  end
  begin
     id 19
     name lradius
     direction 1 -4.48961e-011 4.85371e-027   
     length 3.33312   
     axis 180 -30 -90   XYZ
    dof rx
    limits (-10.0 170.0)
  end
  begin
     id 20
     name lwrist
     direction 1 -4.48961e-011 4.76515e-027   
     length 1.66656   
     axis -3.27502e-015 90 90   XYZ
    dof ry
    limits (-180.0 0.0)
 end
  begin
     id 21 
     name lhand
     direction 1 -4.48951e-011 9.53074e-027   
     length 0.710789   
     axis -6.08098e-015 90 90   XYZ
    dof rx rz
    limits (-90.0 90.0)
           (-45.0 45.0)
  end
  begin
     id 22 
     name lfingers
     direction 1 -4.48953e-011 1.90613e-026   
     length 0.573057   
     axis -1.21619e-014 90 90   XYZ
    dof rx
    limits (0.0 90.0)
  end
  begin
     id 23
     name lthumb
     direction 0.707107 -6.34973e-011 0.707107   
     length 0.822798   
     axis -90 45 -9.86923e-015   XYZ
    dof rx rz
    limits (-45.0 45.0)
           (-45.0 45.0)
  end
  begin
     id 24 
     name rclavicle
     direction -0.9585 0.265289 -0.104398   
     length 3.42039  
     axis 0 0 0   XYZ 
    dof ry rz
    limits (-10.0 20.0)
           (-20.0 0.0)
  end
  begin
     id 25 
     name rhumerus
     direction -1 -4.48977e-011 2.21478e-027  
     length 5.16954   
     axis 180 30 90   XYZ
    dof rx ry rz
    limits (-90.0 60.0)
           (-90.0 90.0)
           (-90.0 90.0)
  end
  begin
     id 26 
     name rradius
     direction -1 -4.48967e-011 5.63677e-027   
     length 3.38287   
     axis 180 30 90   XYZ
    dof rx
    limits (-10.0 170.0)
  end
  begin
     id 27 
     name rwrist
     direction -1 -4.48967e-011 4.76501e-027   
     length 1.69144   
     axis -3.27502e-015 -90 -90   XYZ
    dof ry
    limits (-180.0 0.0)
  end
  begin
     id 28
     name rhand
     direction -1 -4.48902e-011 9.53292e-027   
     length 0.817967   
     axis -6.08098e-015 -90 -90   XYZ
    dof rx rz
    limits (-90.0 90.0)
           (-45.0 45.0)
  end
  begin
     id 29
     name rfingers
     direction -1 -4.49012e-011 1.90561e-026   
     length 0.659466   
     axis -1.21619e-014 -90 -90   XYZ
    dof rx
    limits (0.0 90.0)
  end
  begin
     id 30
     name rthumb
     direction -0.707107 -6.34944e-011 0.707107   
     length 0.946865   
     axis -90 -45 9.86923e-015   XYZ
    dof rx rz
    limits (-45.0 45.0)
           (-45.0 45.0)
  end
:hierarchy
  begin
    root lhipjoint rhipjoint lowerback
    lhipjoint lfemur
    lfemur ltibia
    ltibia lfoot
    lfoot ltoes
    rhipjoint rfemur
    rfemur rtibia
    rtibia rfoot
    rfoot rtoes
    lowerback upperback
    upperback thorax
    thorax lowerneck lclavicle rclavicle
    lowerneck upperneck
    upperneck head
    lclavicle lhumerus
    lhumerus lradius
    lradius lwrist
    lwrist lhand lthumb
    lhand lfingers
    rclavicle rhumerus
    rhumerus rradius
    rradius rwrist
    rwrist rhand rthumb
    rhand rfingers
  end

#!OML:ASF F:\twosubjects\two\wednesday\Session 1\Justin1.ASF
:FULLY-SPECIFIED
:DEGREES
83
root 12.3952 17.8838 -2.95293 0.942176 19.052 -3.38143
lowerback 3.117 -1.29076 1.60364
upperback -0.0877163 -1.5325 5.85235
thorax -1.72247 -0.746911 5.22535
lowerneck -8.33235 -9.91034 -14.2796
upperneck 22.6609 -12.4928 4.977
head 9.80764 -6.52469 2.58323
rclavicle 6.31141e-014 -5.56597e-014
rhumerus -37.0382 -44.7455 -50.6568
rradius 57.1304
rwrist -64.4286
rhand -41.0597 30.4337
rfingers 7.12502
rthumb -13.9892 0.924432
lclavicle 6.31141e-014 -5.56597e-014
lhumerus -35.4607 18.1153 70.8769
lradius 32.1574
lwrist -12.0833
lhand -0.491573 33.2229
lfingers 7.12502
lthumb 25.1194 61.5905
rfemur -17.8027 -5.80326 25.8126
rtibia 23.8427
rfoot -5.84825 -3.31616
rtoes -4.10621
lfemur -3.11024 -3.38377 -13.326
ltibia 52.3303
lfoot 13.2654 -11.6191
ltoes 4.81944
84
root 12.4015 17.9018 -2.79102 0.811306 19.0781 -3.40567
lowerback 3.32079 -1.09508 1.59962
upperback -0.0775308 -1.26209 5.78831
thorax -1.84906 -0.610645 5.15349
lowerneck -7.99937 -10.0355 -14.3218
upperneck 22.4052 -12.7596 5.23139
head 9.70286 -6.63122 2.65775
rclavicle 3.27001e-014 -2.54444e-014
rhumerus -36.1089 -42.269 -53.1233
rradius 59.095
rwrist -65.1215
rhand -42.6429 31.7543
rfingers 7.12502
rthumb -15.5145 2.35669
lclavicle 3.27001e-014 -2.54444e-014
lhumerus -35.6979 18.4044 70.5766
lradius 31.5048
lwrist -12.9723
lhand -0.11216 33.0745
lfingers 7.12502
lthumb 25.4829 61.3906
rfemur -16.8637 -5.74954 25.9607
rtibia 23.3932
rfoot -6.14926 -3.50229
rtoes -4.89484
lfemur -4.16145 -2.93756 -13.0922
ltibia 53.9329
lfoot 11.7963 -10.3863
ltoes 3.11855
85
root 12.4116 17.9167 -2.63005 0.770153 19.2386 -3.44286
lowerback 3.22158 -0.973403 1.62845
upperback -0.0206826 -1.10797 5.72339
thorax -1.74833 -0.535027 5.05784
lowerneck -7.56023 -10.1393 -14.6331
upperneck 22.1238 -13.0725 5.93635
head 9.62753 -6.74103 2.92672
rclavicle -4.29375e-014 4.6118e-014
rhumerus -35.1369 -39.8686 -55.6288
rradius 60.9061
rwrist -65.3986
rhand -44.407 34.0393
rfingers 7.12502
rthumb -17.213 4.78171
lclavicle -4.29375e-014 4.6118e-014
lhumerus -35.8513 18.5667 70.4684
lradius 31.2176
lwrist -13.248
lhand -0.104492 33.7984
lfingers 7.12502
lthumb 25.4903 62.1135
rfemur -16.0571 -5.83066 26.0981
rtibia 22.9918
rfoot -6.71287 -3.68069
rtoes -3.98568
lfemur -5.31528 -2.53063 -12.8346
ltibia 55.3122
lfoot 9.80744 -9.52941
ltoes -0.350393
86
root 12.4224 17.9335 -2.46734 0.824023 19.4211 -3.54687
lowerback 2.88173 -0.84014 1.77784
upperback 0.114814 -0.950886 5.67068
thorax -1.43283 -0.460333 4.9008
lowerneck -7.49419 -10.3631 -14.7513
upperneck 21.9841 -13.4539 6.29123
head 9.64385 -6.89308 3.01497
rclavicle 3.24019e-014 4.45278e-014
rhumerus -33.9173 -37.4261 -58.0683
rradius 62.4814
rwrist -65.7066
rhand -46.1034 37.4603
rfingers 7.12502
rthumb -18.8451 8.35316
lclavicle 3.24019e-014 4.45278e-014
lhumerus -35.9686 18.5294 70.5303
lradius 31.2006
lwrist -13.1099
lhand -0.252863 34.6083
lfingers 7.12502
lthumb 25.3482 62.9437
rfemur -15.3452 -5.87134 26.2863
rtibia 22.6188
rfoot -7.39485 -3.89096
rtoes -1.1494
lfemur -6.57895 -2.10491 -12.4784
ltibia 56.4838
lfoot 8.64732 -8.91553
ltoes -0.170753
87
root 12.4309 17.964 -2.29921 0.728666 19.5988 -3.73023
lowerback 2.86759 -0.649106 2.05237
upperback 0.123104 -0.688399 5.59114
thorax -1.43951 -0.330506 4.65043
lowerneck -7.29631 -10.5807 -14.7019
upperneck 21.9188 -13.8117 6.37404
head 9.62791 -7.05089 2.994
rclavicle -1.30204e-014 -9.54166e-015
rhumerus -33.0943 -34.8535 -60.0992
rradius 64.0168
rwrist -66.1006
rhand -47.7467 41.7513
rfingers 7.12502
rthumb -20.425 12.8055
lclavicle -1.30204e-014 -9.54166e-015
lhumerus -36.2611 18.1425 70.5334
lradius 30.9902
lwrist -12.9666
lhand -0.311482 35.4841
lfingers 7.12502
lthumb 25.292 63.8274
rfemur -14.4686 -5.59432 26.4673
rtibia 22.2045
rfoot -7.84519 -4.21086
rtoes 2.90918
lfemur -7.59455 -1.74792 -12.0902
ltibia 57.456
lfoot 8.45574 -8.57322
ltoes 2.1829
